# xmcd
#
# Track frame offsets:
#	150
#	16575
#	42490
#	55911
#	72708
#	87721
#	104388
#	122132
#	135841
#	149383
#	162646
#	179105
#	194188
#	208618
#	222124
#	239055
#	252923
#	268638
#	284103
#	298961
#
# Disc length: 4154 seconds
#
# Revision: 1
# Processed by: cddbd v1.5.2PL0 Copyright (c) Steve Scherf et al.
# Submitted via: audiograbber 1.83.01
#
DISCID=59103814
DTITLE=Verschiedene - Ranfichten cd2
DYEAR=1900
DGENRE=
TTITLE0=01 Randfichten - Nur noch mal Heim
TTITLE1=Die Randfichten - Steig ei Wir fahren in die
TTITLE2=Toni - Volskmusik, das ist mein Leben
TTITLE3=Andy Borg - Zärtliche Augen
TTITLE4=Nicole - Ich will Musik
TTITLE5=Fernando Express - Die Zehn Gebote der Liebe
TTITLE6=Jantje Smit - Für jedes Kind auf dieser Welt
TTITLE7=Naabtal Duo - Madonna di Campiglio
TTITLE8=Andre Rieu - Einzug der Gladiatoren
TTITLE9=Die Randfichten - Do pfeift der Fuchs
TTITLE10=Geschwister Hofmann - Mitten im Vulkan
TTITLE11=Vikinger - Das kann nur Liebe sein
TTITLE12=Claudio Deri - Giovanna
TTITLE13=Truck Stop - Durch Sachsen
TTITLE14=w. Petry - Irgendwie und irgendwan
TTITLE15=Brunner and Br. - Prosecco für alle
TTITLE16=Tom Astor - Mein Eldorado
TTITLE17=Stephan Mross - Happy Volksmusik
TTITLE18=Heino - Ach, ich hab in meinem Herzen
TTITLE19=Randfichten - Wir stehn auf
EXTD=
EXTT0=
EXTT1=
EXTT2=
EXTT3=
EXTT4=
EXTT5=
EXTT6=
EXTT7=
EXTT8=
EXTT9=
EXTT10=
EXTT11=
EXTT12=
EXTT13=
EXTT14=
EXTT15=
EXTT16=
EXTT17=
EXTT18=
EXTT19=
PLAYORDER=
